<?xml version="1.0" encoding="UTF-8" standalone="no"?>
<svg
   xmlns:dc="http://purl.org/dc/elements/1.1/"
   xmlns:cc="http://creativecommons.org/ns#"
   xmlns:rdf="http://www.w3.org/1999/02/22-rdf-syntax-ns#"
   xmlns:svg="http://www.w3.org/2000/svg"
   xmlns="http://www.w3.org/2000/svg"
   xmlns:xlink="http://www.w3.org/1999/xlink"
   xmlns:sodipodi="http://sodipodi.sourceforge.net/DTD/sodipodi-0.dtd"
   xmlns:inkscape="http://www.inkscape.org/namespaces/inkscape"
   id="svg8"
   version="1.1"
   viewBox="0 0 190 190"
   height="190mm"
   width="190mm"
   sodipodi:docname="ic_launcher.svg"
   inkscape:export-filename="/home/tux/projekte/android/ImageSms/app/src/main/res/mipmap-xxxhdpi/ic_launcher.png"
   inkscape:export-xdpi="25.667368"
   inkscape:export-ydpi="25.667368"
   inkscape:version="0.92.2 2405546, 2018-03-11">
  <sodipodi:namedview
     pagecolor="#ffffff"
     bordercolor="#666666"
     borderopacity="1"
     objecttolerance="10"
     gridtolerance="10"
     guidetolerance="10"
     inkscape:pageopacity="0"
     inkscape:pageshadow="2"
     inkscape:window-width="1129"
     inkscape:window-height="700"
     id="namedview8"
     showgrid="false"
     inkscape:zoom="0.32864035"
     inkscape:cx="1008.7015"
     inkscape:cy="359.05512"
     inkscape:window-x="27"
     inkscape:window-y="0"
     inkscape:window-maximized="0"
     inkscape:current-layer="svg8" />
  <defs
     id="defs2">
    <linearGradient
       inkscape:collect="always"
       id="linearGradient4548">
      <stop
         style="stop-color:#0000ff;stop-opacity:1"
         offset="0"
         id="stop4544" />
      <stop
         style="stop-color:#87aade;stop-opacity:1"
         offset="1"
         id="stop4546" />
    </linearGradient>
    <linearGradient
       inkscape:collect="always"
       xlink:href="#linearGradient4548"
       id="linearGradient4550"
       x1="157.38477"
       y1="511.43555"
       x2="432.3215"
       y2="136.80856"
       gradientUnits="userSpaceOnUse"
       gradientTransform="matrix(0.24603987,0,0,0.24603987,7.6965912,13.445003)" />
    <filter
       inkscape:collect="always"
       style="color-interpolation-filters:sRGB"
       id="filter4608"
       x="-0.069676924"
       width="1.1393538"
       y="-0.074483325"
       height="1.1489667">
      <feGaussianBlur
         inkscape:collect="always"
         stdDeviation="5.0990221"
         id="feGaussianBlur4610" />
    </filter>
  </defs>
  <metadata
     id="metadata5">
    <rdf:RDF>
      <cc:Work
         rdf:about="">
        <dc:format>image/svg+xml</dc:format>
        <dc:type
           rdf:resource="http://purl.org/dc/dcmitype/StillImage" />
        <dc:title />
      </cc:Work>
    </rdf:RDF>
  </metadata>
  <path
     inkscape:connector-curvature="0"
     style="opacity:1;fill:#000000;fill-opacity:1;stroke:none;stroke-width:0.72078258;stroke-miterlimit:4;stroke-dasharray:none;stroke-dashoffset:0;stroke-opacity:1;filter:url(#filter4608)"
     d="m 28.734165,8.792746 c -11.93939,0 -21.5511388,9.612266 -21.5511388,21.551656 v 83.421788 c -10e-7,11.93939 9.6117488,21.55114 21.5511388,21.55114 h 12.907224 l -17.488856,37.77599 57.65798,-37.77599 h 79.455617 c 11.93939,0 21.55113,-9.61175 21.55113,-21.55114 V 30.344402 c 0,-11.93939 -9.61174,-21.551656 -21.55113,-21.551656 z"
     id="rect3713-5"
     transform="matrix(0.92991444,0,0,0.92991444,7.6965912,13.445003)" />
  <path
     style="opacity:1;fill:url(#linearGradient4550);fill-opacity:1;stroke:none;stroke-width:0.67026615;stroke-miterlimit:4;stroke-dasharray:none;stroke-dashoffset:0;stroke-opacity:1"
     d="m 34.416905,21.621504 c -11.102611,0 -20.040716,8.938586 -20.040716,20.041197 v 77.575119 c 0,11.10261 8.938105,20.04072 20.040716,20.04072 h 12.002614 l -16.26314,35.12844 53.616989,-35.12844 H 157.6603 c 11.10261,0 20.04071,-8.93811 20.04071,-20.04072 V 41.662701 c 0,-11.102611 -8.9381,-20.041197 -20.04071,-20.041197 z"
     id="rect3713"
     inkscape:connector-curvature="0" />
  <ellipse
     style="opacity:1;fill:#ffffff;fill-opacity:1;stroke:none;stroke-width:0.78732759;stroke-miterlimit:4;stroke-dasharray:none;stroke-dashoffset:0;stroke-opacity:1"
     id="path3715"
     cx="88.96199"
     cy="77.86554"
     rx="34.438358"
     ry="33.315369" />
  <path
     style="font-style:normal;font-weight:normal;font-size:37.40307617px;line-height:1.25;font-family:sans-serif;letter-spacing:0px;word-spacing:0px;fill:#ffffff;fill-opacity:1;stroke:none;stroke-width:0.68044126"
     d="m 119.70211,108.67318 c -2.1326,0 -3.80804,0.51406 -5.02667,1.54213 -1.20993,1.02806 -1.81509,2.43467 -1.81509,4.22026 0,1.5421 0.43977,2.74595 1.31893,3.61169 0.87915,0.86573 2.30208,1.50184 4.26931,1.90765 l 1.60597,0.32458 c 1.34049,0.27955 2.30254,0.69898 2.88574,1.25811 0.5919,0.55913 0.88778,1.3344 0.88778,2.32639 0,1.13628 -0.40908,2.01133 -1.2273,2.62455 -0.81823,0.61323 -1.98021,0.91977 -3.48609,0.91977 -0.99231,0 -2.00195,-0.15784 -3.02908,-0.47347 -1.02713,-0.31564 -2.07628,-0.78477 -3.14693,-1.40701 v 2.81364 c 1.11417,0.42385 2.18942,0.74427 3.22526,0.96071 1.04454,0.21644 2.02808,0.32458 2.95075,0.32458 2.44596,0 4.29985,-0.50493 5.562,-1.51494 1.27085,-1.01004 1.90634,-2.49376 1.90634,-4.45069 0,-1.64129 -0.47009,-2.94891 -1.41018,-3.92286 -0.93138,-0.98298 -2.38041,-1.6684 -4.34763,-2.05616 l -1.59305,-0.33799 c -1.44493,-0.27954 -2.42849,-0.64491 -2.95075,-1.09581 -0.51357,-0.45993 -0.7703,-1.1362 -0.7703,-2.02899 0,-1.06414 0.38721,-1.88473 1.1619,-2.46189 0.78341,-0.57716 1.89321,-0.86579 3.32945,-0.86579 0.82693,0 1.68421,0.12165 2.57208,0.36515 0.88786,0.24348 1.83226,0.61323 2.83327,1.10923 v -2.66475 c -0.99231,-0.34269 -1.9628,-0.59991 -2.91159,-0.77126 -0.9488,-0.17134 -1.88015,-0.25683 -2.79412,-0.25683 z m 40.05819,0 c -2.13258,0 -3.8084,0.51406 -5.02703,1.54213 -1.20992,1.02806 -1.81471,2.43467 -1.81471,4.22026 0,1.5421 0.4394,2.74595 1.31855,3.61169 0.87915,0.86573 2.30245,1.50184 4.26968,1.90765 l 1.60597,0.32458 c 1.3405,0.27955 2.30254,0.69898 2.88574,1.25811 0.5919,0.55913 0.88778,1.3344 0.88778,2.32639 0,1.13628 -0.40907,2.01133 -1.2273,2.62455 -0.81823,0.61323 -1.98058,0.91977 -3.48645,0.91977 -0.99232,0 -2.00196,-0.15784 -3.02909,-0.47347 -1.02712,-0.31564 -2.07591,-0.78477 -3.14655,-1.40701 v 2.81364 c 1.11416,0.42385 2.18903,0.74427 3.22488,0.96071 1.04454,0.21644 2.02808,0.32458 2.95076,0.32458 2.44596,0 4.30021,-0.50493 5.56237,-1.51494 1.27084,-1.01004 1.90633,-2.49376 1.90633,-4.45069 0,-1.64129 -0.47008,-2.94891 -1.41017,-3.92286 -0.93139,-0.98298 -2.38078,-1.6684 -4.348,-2.05616 l -1.59268,-0.33799 c -1.44495,-0.27954 -2.42885,-0.64491 -2.95113,-1.09581 -0.51356,-0.45993 -0.77029,-1.1362 -0.77029,-2.02899 0,-1.06414 0.38757,-1.88473 1.16227,-2.46189 0.78341,-0.57716 1.8932,-0.86579 3.32944,-0.86579 0.82692,0 1.68422,0.12165 2.57209,0.36515 0.88785,0.24348 1.83225,0.61323 2.83327,1.10923 v -2.66475 c -0.99231,-0.34269 -1.96282,-0.59991 -2.9116,-0.77126 -0.9488,-0.17134 -1.88015,-0.25683 -2.79413,-0.25683 z m -29.06424,0.36516 v 20.1961 h 2.55915 v -17.73421 l 5.02667,13.85191 h 2.6504 l 5.02704,-13.85191 v 17.73421 h 2.57207 v -20.1961 h -3.93016 l -5.00044,13.74361 -4.97494,-13.74361 z"
     id="text3719"
     inkscape:connector-curvature="0" />
</svg>
